<mxfile host="app.diagrams.net" modified="2023-11-05T13:13:00.158Z" agent="Mozilla/5.0 (Windows NT 10.0; Win64; x64) AppleWebKit/537.36 (KHTML, like Gecko) Chrome/118.0.0.0 Whale/3.23.214.10 Safari/537.36" etag="t2dGqCdBZXf9qRNXe_5z" version="22.0.8" type="device">
  <diagram name="페이지-1" id="JE8MEzz7iIUE86NgohCW">
    <mxGraphModel dx="1434" dy="1925" grid="1" gridSize="10" guides="1" tooltips="1" connect="1" arrows="1" fold="1" page="1" pageScale="1" pageWidth="827" pageHeight="1169" math="0" shadow="0">
      <root>
        <mxCell id="0" />
        <mxCell id="1" parent="0" />
        <mxCell id="kbuzLo-hbv-pQjnqXCt1-2" value="게시판 CRUD 시스템" style="rounded=0;whiteSpace=wrap;html=1;fontSize=26;labelPosition=center;verticalLabelPosition=top;align=center;verticalAlign=bottom;" vertex="1" parent="1">
          <mxGeometry x="190" y="30" width="710" height="620" as="geometry" />
        </mxCell>
        <mxCell id="kbuzLo-hbv-pQjnqXCt1-3" value="Actor" style="shape=umlActor;verticalLabelPosition=bottom;verticalAlign=top;html=1;outlineConnect=0;" vertex="1" parent="1">
          <mxGeometry x="80" y="290" width="70" height="130" as="geometry" />
        </mxCell>
        <mxCell id="kbuzLo-hbv-pQjnqXCt1-4" value="게시판 사용자" style="text;html=1;align=center;verticalAlign=middle;resizable=0;points=[];autosize=1;strokeColor=none;fillColor=none;" vertex="1" parent="1">
          <mxGeometry x="65" y="440" width="100" height="30" as="geometry" />
        </mxCell>
        <mxCell id="kbuzLo-hbv-pQjnqXCt1-5" value="&lt;font style=&quot;font-size: 15px;&quot;&gt;게시글 작성&lt;/font&gt;" style="ellipse;whiteSpace=wrap;html=1;" vertex="1" parent="1">
          <mxGeometry x="220" y="70" width="120" height="80" as="geometry" />
        </mxCell>
        <mxCell id="kbuzLo-hbv-pQjnqXCt1-6" value="&lt;font style=&quot;font-size: 15px;&quot;&gt;게시글 조회&lt;/font&gt;" style="ellipse;whiteSpace=wrap;html=1;" vertex="1" parent="1">
          <mxGeometry x="260" y="180" width="120" height="80" as="geometry" />
        </mxCell>
        <mxCell id="kbuzLo-hbv-pQjnqXCt1-7" value="&lt;font style=&quot;font-size: 15px;&quot;&gt;게시글 전체조회&lt;/font&gt;" style="ellipse;whiteSpace=wrap;html=1;" vertex="1" parent="1">
          <mxGeometry x="330" y="270" width="120" height="80" as="geometry" />
        </mxCell>
        <mxCell id="kbuzLo-hbv-pQjnqXCt1-11" value="&lt;font style=&quot;font-size: 15px;&quot;&gt;게시글 삭제&lt;/font&gt;" style="ellipse;whiteSpace=wrap;html=1;" vertex="1" parent="1">
          <mxGeometry x="430" y="410" width="120" height="80" as="geometry" />
        </mxCell>
        <mxCell id="kbuzLo-hbv-pQjnqXCt1-12" value="&lt;font style=&quot;font-size: 15px;&quot;&gt;게시글 수정&lt;/font&gt;" style="ellipse;whiteSpace=wrap;html=1;" vertex="1" parent="1">
          <mxGeometry x="510" y="530" width="120" height="80" as="geometry" />
        </mxCell>
        <mxCell id="kbuzLo-hbv-pQjnqXCt1-13" value="&lt;font style=&quot;font-size: 15px;&quot;&gt;비밀번호 확인&lt;/font&gt;" style="ellipse;whiteSpace=wrap;html=1;" vertex="1" parent="1">
          <mxGeometry x="570" y="230" width="120" height="80" as="geometry" />
        </mxCell>
        <mxCell id="kbuzLo-hbv-pQjnqXCt1-14" value="&lt;span style=&quot;font-size: 15px;&quot;&gt;비밀번호&lt;br&gt;에러 출력&amp;nbsp;&lt;/span&gt;" style="ellipse;whiteSpace=wrap;html=1;" vertex="1" parent="1">
          <mxGeometry x="700" y="90" width="120" height="80" as="geometry" />
        </mxCell>
        <mxCell id="kbuzLo-hbv-pQjnqXCt1-19" value="&amp;lt;&amp;lt;extend&amp;gt;&amp;gt;" style="html=1;verticalAlign=bottom;endArrow=open;dashed=1;endSize=8;curved=0;rounded=0;" edge="1" parent="1" source="kbuzLo-hbv-pQjnqXCt1-14" target="kbuzLo-hbv-pQjnqXCt1-13">
          <mxGeometry relative="1" as="geometry">
            <mxPoint x="450" y="430" as="sourcePoint" />
            <mxPoint x="370" y="430" as="targetPoint" />
          </mxGeometry>
        </mxCell>
        <mxCell id="kbuzLo-hbv-pQjnqXCt1-20" value="&amp;lt;&amp;lt;include&amp;gt;&amp;gt;" style="html=1;verticalAlign=bottom;endArrow=open;dashed=1;endSize=8;curved=0;rounded=0;exitX=1;exitY=1;exitDx=0;exitDy=0;entryX=0.092;entryY=0.175;entryDx=0;entryDy=0;entryPerimeter=0;" edge="1" parent="1" source="kbuzLo-hbv-pQjnqXCt1-11" target="kbuzLo-hbv-pQjnqXCt1-13">
          <mxGeometry relative="1" as="geometry">
            <mxPoint x="450" y="430" as="sourcePoint" />
            <mxPoint x="370" y="430" as="targetPoint" />
          </mxGeometry>
        </mxCell>
        <mxCell id="kbuzLo-hbv-pQjnqXCt1-21" value="&amp;lt;&amp;lt;include&amp;gt;&amp;gt;" style="html=1;verticalAlign=bottom;endArrow=open;dashed=1;endSize=8;curved=0;rounded=0;exitX=0.958;exitY=0.35;exitDx=0;exitDy=0;exitPerimeter=0;" edge="1" parent="1" source="kbuzLo-hbv-pQjnqXCt1-12" target="kbuzLo-hbv-pQjnqXCt1-13">
          <mxGeometry relative="1" as="geometry">
            <mxPoint x="450" y="430" as="sourcePoint" />
            <mxPoint x="370" y="430" as="targetPoint" />
          </mxGeometry>
        </mxCell>
        <mxCell id="kbuzLo-hbv-pQjnqXCt1-22" value="" style="endArrow=none;html=1;rounded=0;" edge="1" parent="1" source="kbuzLo-hbv-pQjnqXCt1-3" target="kbuzLo-hbv-pQjnqXCt1-11">
          <mxGeometry width="50" height="50" relative="1" as="geometry">
            <mxPoint x="390" y="560" as="sourcePoint" />
            <mxPoint x="440" y="510" as="targetPoint" />
          </mxGeometry>
        </mxCell>
        <mxCell id="kbuzLo-hbv-pQjnqXCt1-23" value="" style="endArrow=none;html=1;rounded=0;" edge="1" parent="1" source="kbuzLo-hbv-pQjnqXCt1-3" target="kbuzLo-hbv-pQjnqXCt1-7">
          <mxGeometry width="50" height="50" relative="1" as="geometry">
            <mxPoint x="390" y="560" as="sourcePoint" />
            <mxPoint x="440" y="510" as="targetPoint" />
          </mxGeometry>
        </mxCell>
        <mxCell id="kbuzLo-hbv-pQjnqXCt1-24" value="" style="endArrow=none;html=1;rounded=0;" edge="1" parent="1" source="kbuzLo-hbv-pQjnqXCt1-12">
          <mxGeometry width="50" height="50" relative="1" as="geometry">
            <mxPoint x="390" y="560" as="sourcePoint" />
            <mxPoint x="140" y="430" as="targetPoint" />
          </mxGeometry>
        </mxCell>
        <mxCell id="kbuzLo-hbv-pQjnqXCt1-25" value="" style="endArrow=none;html=1;rounded=0;" edge="1" parent="1" source="kbuzLo-hbv-pQjnqXCt1-3" target="kbuzLo-hbv-pQjnqXCt1-6">
          <mxGeometry width="50" height="50" relative="1" as="geometry">
            <mxPoint x="390" y="360" as="sourcePoint" />
            <mxPoint x="440" y="310" as="targetPoint" />
          </mxGeometry>
        </mxCell>
        <mxCell id="kbuzLo-hbv-pQjnqXCt1-26" value="" style="endArrow=none;html=1;rounded=0;entryX=0;entryY=1;entryDx=0;entryDy=0;" edge="1" parent="1" source="kbuzLo-hbv-pQjnqXCt1-3" target="kbuzLo-hbv-pQjnqXCt1-5">
          <mxGeometry width="50" height="50" relative="1" as="geometry">
            <mxPoint x="390" y="360" as="sourcePoint" />
            <mxPoint x="440" y="310" as="targetPoint" />
          </mxGeometry>
        </mxCell>
      </root>
    </mxGraphModel>
  </diagram>
</mxfile>
